<svg xmlns="http://www.w3.org/2000/svg" xmlns:xlink="http://www.w3.org/1999/xlink" version="1.1" width="664" height="505.2" viewBox="17.2 95.2 664 505.2"><g><g transform="translate(35,158)"><g><g>
<path d="M132,0H0v73h132V0L132,0z" stroke="#000000" stroke-dasharray="none" fill="#FFFFFF"/>
<rect x="5.8" y="3.3" width="120.5" height="66.3" fill="none"/>
<circle fill="none" cx="66" cy="0" r="0.1"/>
<circle fill="none" cx="98.7" cy="0" r="0.1"/>
<circle fill="none" cx="132" cy="18.4" r="0.1"/>
<circle fill="none" cx="132" cy="36.5" r="0.1"/>
<circle fill="none" cx="132" cy="54.6" r="0.1"/>
<circle fill="none" cx="98.7" cy="73" r="0.1"/>
<circle fill="none" cx="66" cy="73" r="0.1"/>
<circle fill="none" cx="33.3" cy="73" r="0.1"/>
<circle fill="none" cx="0" cy="54.6" r="0.1"/>
<circle fill="none" cx="0" cy="36.5" r="0.1"/>
<circle fill="none" cx="0" cy="18.4" r="0.1"/>
<circle fill="none" cx="33.3" cy="0" r="0.1"/>
</g></g><rect stroke="none" stroke-width="1" fill="#FFFFFF" x="0" y="0" width="40" height="20" transform="translate(108.6,-62.1)"/><path stroke="#000000" fill="none" d="M98.7,0 C126.8,-7.6 94.8,-34.5 122.9 -42.1"/><text font-family="OpenSansCondensedLight" font-size="14pt" fill="black" transform="translate(108.6,-62.1)" text-anchor="middle"><tspan x="20" y="16.3">102</tspan></text><rect stroke-width="0" fill="none" width="120.5" height="66.3" transform="translate(5.8,3.3)"/><text font-family="OpenSansCondensedLight" font-size="14pt" fill="black" transform="translate(5.8,3.3)" text-anchor="middle"><tspan x="60.2" y="39.5">NETWORK DEVICE</tspan></text><path stroke="#000000" fill="none" transform="translate(5.8,3.3)" d="M 0 0"/></g><g transform="translate(34,367)"><g><g>
<path d="M132,0H0v73h132V0L132,0z" stroke="#000000" stroke-dasharray="none" fill="#FFFFFF"/>
<rect x="5.8" y="3.3" width="120.5" height="66.3" fill="none"/>
<circle fill="none" cx="66" cy="0" r="0.1"/>
<circle fill="none" cx="98.7" cy="0" r="0.1"/>
<circle fill="none" cx="132" cy="18.4" r="0.1"/>
<circle fill="none" cx="132" cy="36.5" r="0.1"/>
<circle fill="none" cx="132" cy="54.6" r="0.1"/>
<circle fill="none" cx="98.7" cy="73" r="0.1"/>
<circle fill="none" cx="66" cy="73" r="0.1"/>
<circle fill="none" cx="33.3" cy="73" r="0.1"/>
<circle fill="none" cx="0" cy="54.6" r="0.1"/>
<circle fill="none" cx="0" cy="36.5" r="0.1"/>
<circle fill="none" cx="0" cy="18.4" r="0.1"/>
<circle fill="none" cx="33.3" cy="0" r="0.1"/>
</g></g><rect stroke="none" stroke-width="1" fill="#FFFFFF" x="0" y="0" width="40" height="20" transform="translate(-16.8,114.9)"/><path stroke="#000000" fill="none" d="M33.3,73 C5.2,80.5 37.1,107.4 9 114.9"/><text font-family="OpenSansCondensedLight" font-size="14pt" fill="black" transform="translate(-16.8,114.9)" text-anchor="middle"><tspan x="20" y="16.3">114</tspan></text><rect stroke-width="0" fill="none" width="120.5" height="66.3" transform="translate(5.8,3.3)"/><text font-family="OpenSansCondensedLight" font-size="14pt" fill="black" transform="translate(5.8,3.3)" text-anchor="middle"><tspan x="60.2" y="39.5">STORAGE</tspan></text><path stroke="#000000" fill="none" transform="translate(5.8,3.3)" d="M 0 0"/></g><g transform="translate(463,159)"><g><g>
<path d="M132,0H0v73h132V0L132,0z" stroke="#000000" stroke-dasharray="none" fill="#FFFFFF"/>
<rect x="5.8" y="3.3" width="120.5" height="66.3" fill="none"/>
<circle fill="none" cx="66" cy="0" r="0.1"/>
<circle fill="none" cx="98.7" cy="0" r="0.1"/>
<circle fill="none" cx="132" cy="18.4" r="0.1"/>
<circle fill="none" cx="132" cy="36.5" r="0.1"/>
<circle fill="none" cx="132" cy="54.6" r="0.1"/>
<circle fill="none" cx="98.7" cy="73" r="0.1"/>
<circle fill="none" cx="66" cy="73" r="0.1"/>
<circle fill="none" cx="33.3" cy="73" r="0.1"/>
<circle fill="none" cx="0" cy="54.6" r="0.1"/>
<circle fill="none" cx="0" cy="36.5" r="0.1"/>
<circle fill="none" cx="0" cy="18.4" r="0.1"/>
<circle fill="none" cx="33.3" cy="0" r="0.1"/>
</g></g><rect stroke="none" stroke-width="1" fill="#FFFFFF" x="0" y="0" width="40" height="20" transform="translate(108.6,-62.1)"/><path stroke="#000000" fill="none" d="M98.7,0 C126.8,-7.6 94.8,-34.5 122.9 -42.1"/><text font-family="OpenSansCondensedLight" font-size="14pt" fill="black" transform="translate(108.6,-62.1)" text-anchor="middle"><tspan x="20" y="16.3">104</tspan></text><rect stroke-width="0" fill="none" width="120.5" height="66.3" transform="translate(5.8,3.3)"/><text font-family="OpenSansCondensedLight" font-size="14pt" fill="black" transform="translate(5.8,3.3)" text-anchor="middle"><tspan x="60.2" y="39.5">DISPLAY</tspan></text><path stroke="#000000" fill="none" transform="translate(5.8,3.3)" d="M 0 0"/></g><g transform="translate(34,262)"><g><g>
<path d="M132,0H0v73h132V0L132,0z" stroke="#000000" stroke-dasharray="none" fill="#FFFFFF"/>
<rect x="5.8" y="3.3" width="120.5" height="66.3" fill="none"/>
<circle fill="none" cx="66" cy="0" r="0.1"/>
<circle fill="none" cx="98.7" cy="0" r="0.1"/>
<circle fill="none" cx="132" cy="18.4" r="0.1"/>
<circle fill="none" cx="132" cy="36.5" r="0.1"/>
<circle fill="none" cx="132" cy="54.6" r="0.1"/>
<circle fill="none" cx="98.7" cy="73" r="0.1"/>
<circle fill="none" cx="66" cy="73" r="0.1"/>
<circle fill="none" cx="33.3" cy="73" r="0.1"/>
<circle fill="none" cx="0" cy="54.6" r="0.1"/>
<circle fill="none" cx="0" cy="36.5" r="0.1"/>
<circle fill="none" cx="0" cy="18.4" r="0.1"/>
<circle fill="none" cx="33.3" cy="0" r="0.1"/>
</g></g><rect stroke="none" stroke-width="1" fill="#FFFFFF" x="0" y="0" width="40" height="20" transform="translate(163.9,74.5)"/><path stroke="#000000" fill="none" d="M132,54.6 C138.2,77.7 160.3,51.4 166.5 74.5"/><text font-family="OpenSansCondensedLight" font-size="14pt" fill="black" transform="translate(163.9,74.5)" text-anchor="middle"><tspan x="20" y="16.3">108</tspan></text><rect stroke-width="0" fill="none" width="120.5" height="66.3" transform="translate(5.8,3.3)"/><text font-family="OpenSansCondensedLight" font-size="14pt" fill="black" transform="translate(5.8,3.3)" text-anchor="middle"><tspan x="60.2" y="39.5">EXPANSION CARD</tspan></text><path stroke="#000000" fill="none" transform="translate(5.8,3.3)" d="M 0 0"/></g><g transform="translate(462,369)"><g><g>
<path d="M132,0H0v73h132V0L132,0z" stroke="#000000" stroke-dasharray="none" fill="#FFFFFF"/>
<rect x="5.8" y="3.3" width="120.5" height="66.3" fill="none"/>
<circle fill="none" cx="66" cy="0" r="0.1"/>
<circle fill="none" cx="98.7" cy="0" r="0.1"/>
<circle fill="none" cx="132" cy="18.4" r="0.1"/>
<circle fill="none" cx="132" cy="36.5" r="0.1"/>
<circle fill="none" cx="132" cy="54.6" r="0.1"/>
<circle fill="none" cx="98.7" cy="73" r="0.1"/>
<circle fill="none" cx="66" cy="73" r="0.1"/>
<circle fill="none" cx="33.3" cy="73" r="0.1"/>
<circle fill="none" cx="0" cy="54.6" r="0.1"/>
<circle fill="none" cx="0" cy="36.5" r="0.1"/>
<circle fill="none" cx="0" cy="18.4" r="0.1"/>
<circle fill="none" cx="33.3" cy="0" r="0.1"/>
</g></g><rect stroke="none" stroke-width="1" fill="#FFFFFF" x="0" y="0" width="40" height="20" transform="translate(108.6,114.9)"/><path stroke="#000000" fill="none" d="M98.7,73 C91.2,101 130.4,86.9 122.8 114.9"/><text font-family="OpenSansCondensedLight" font-size="14pt" fill="black" transform="translate(108.6,114.9)" text-anchor="middle"><tspan x="20" y="16.3">116</tspan></text><rect stroke-width="0" fill="none" width="120.5" height="66.3" transform="translate(5.8,3.3)"/><text font-family="OpenSansCondensedLight" font-size="14pt" fill="black" transform="translate(5.8,3.3)" text-anchor="middle"><tspan x="60.2" y="39.5">I/O PORTS</tspan></text><path stroke="#000000" fill="none" transform="translate(5.8,3.3)" d="M 0 0"/></g><g transform="translate(248,159)"><g><g>
<path d="M132,0H0v73h132V0L132,0z" stroke="#000000" stroke-dasharray="none" fill="#FFFFFF"/>
<rect x="5.8" y="3.3" width="120.5" height="66.3" fill="none"/>
<circle fill="none" cx="66" cy="0" r="0.1"/>
<circle fill="none" cx="98.7" cy="0" r="0.1"/>
<circle fill="none" cx="132" cy="18.4" r="0.1"/>
<circle fill="none" cx="132" cy="36.5" r="0.1"/>
<circle fill="none" cx="132" cy="54.6" r="0.1"/>
<circle fill="none" cx="98.7" cy="73" r="0.1"/>
<circle fill="none" cx="66" cy="73" r="0.1"/>
<circle fill="none" cx="33.3" cy="73" r="0.1"/>
<circle fill="none" cx="0" cy="54.6" r="0.1"/>
<circle fill="none" cx="0" cy="36.5" r="0.1"/>
<circle fill="none" cx="0" cy="18.4" r="0.1"/>
<circle fill="none" cx="33.3" cy="0" r="0.1"/>
</g></g><rect stroke="none" stroke-width="0" fill="#FFFFFF" x="0" y="0" width="0" height="0" transform="translate(131.9,36.4)"/><path stroke="#000000" fill="none" d=""/><text font-family="OpenSansCondensedLight" font-size="14pt" fill="black" transform="translate(131.9,36.4)"/><rect stroke-width="0" fill="none" width="120.5" height="66.3" transform="translate(5.8,3.3)"/><text font-family="OpenSansCondensedLight" font-size="14pt" fill="black" transform="translate(5.8,3.3)" text-anchor="middle"><tspan x="60.2" y="18.5">INPUT</tspan><tspan x="60.2" y="39.5">STRUCTURE</tspan><tspan x="60.2" y="60.5">106</tspan></text><path stroke="#000000" fill="none" transform="translate(5.8,3.3)" d="M 46.2 63 74.2 63"/></g><g transform="translate(462,264)"><g><g>
<path d="M132,0H0v73h132V0L132,0z" stroke="#000000" stroke-dasharray="none" fill="#FFFFFF"/>
<rect x="5.8" y="3.3" width="120.5" height="66.3" fill="none"/>
<circle fill="none" cx="66" cy="0" r="0.1"/>
<circle fill="none" cx="98.7" cy="0" r="0.1"/>
<circle fill="none" cx="132" cy="18.4" r="0.1"/>
<circle fill="none" cx="132" cy="36.5" r="0.1"/>
<circle fill="none" cx="132" cy="54.6" r="0.1"/>
<circle fill="none" cx="98.7" cy="73" r="0.1"/>
<circle fill="none" cx="66" cy="73" r="0.1"/>
<circle fill="none" cx="33.3" cy="73" r="0.1"/>
<circle fill="none" cx="0" cy="54.6" r="0.1"/>
<circle fill="none" cx="0" cy="36.5" r="0.1"/>
<circle fill="none" cx="0" cy="18.4" r="0.1"/>
<circle fill="none" cx="33.3" cy="0" r="0.1"/>
</g></g><rect stroke="none" stroke-width="1" fill="#FFFFFF" x="0" y="0" width="40" height="20" transform="translate(163.9,74.5)"/><path stroke="#000000" fill="none" d="M132,54.6 C138.2,77.7 160.3,51.4 166.5 74.5"/><text font-family="OpenSansCondensedLight" font-size="14pt" fill="black" transform="translate(163.9,74.5)" text-anchor="middle"><tspan x="20" y="16.3">110</tspan></text><rect stroke-width="0" fill="none" width="120.5" height="66.3" transform="translate(5.8,3.3)"/><text font-family="OpenSansCondensedLight" font-size="14pt" fill="black" transform="translate(5.8,3.3)" text-anchor="middle"><tspan x="60.2" y="39.5">POWER SOURCE</tspan></text><path stroke="#000000" fill="none" transform="translate(5.8,3.3)" d="M 0 0"/></g><g transform="translate(248,369)"><g><g>
<path d="M132,0H0v73h132V0L132,0z" stroke="#000000" stroke-dasharray="none" fill="#FFFFFF"/>
<rect x="5.8" y="3.3" width="120.5" height="66.3" fill="none"/>
<circle fill="none" cx="66" cy="0" r="0.1"/>
<circle fill="none" cx="98.7" cy="0" r="0.1"/>
<circle fill="none" cx="132" cy="18.4" r="0.1"/>
<circle fill="none" cx="132" cy="36.5" r="0.1"/>
<circle fill="none" cx="132" cy="54.6" r="0.1"/>
<circle fill="none" cx="98.7" cy="73" r="0.1"/>
<circle fill="none" cx="66" cy="73" r="0.1"/>
<circle fill="none" cx="33.3" cy="73" r="0.1"/>
<circle fill="none" cx="0" cy="54.6" r="0.1"/>
<circle fill="none" cx="0" cy="36.5" r="0.1"/>
<circle fill="none" cx="0" cy="18.4" r="0.1"/>
<circle fill="none" cx="33.3" cy="0" r="0.1"/>
</g></g><rect stroke="none" stroke-width="1" fill="#FFFFFF" x="0" y="0" width="40" height="20" transform="translate(-16.8,114.9)"/><path stroke="#000000" fill="none" d="M33.3,73 C5.2,80.5 37.1,107.4 9 114.9"/><text font-family="OpenSansCondensedLight" font-size="14pt" fill="black" transform="translate(-16.8,114.9)" text-anchor="middle"><tspan x="20" y="16.3">118</tspan></text><rect stroke-width="0" fill="none" width="120.5" height="66.3" transform="translate(5.8,3.3)"/><text font-family="OpenSansCondensedLight" font-size="14pt" fill="black" transform="translate(5.8,3.3)" text-anchor="middle"><tspan x="60.2" y="39.5">MEMORY</tspan></text><path stroke="#000000" fill="none" transform="translate(5.8,3.3)" d="M 0 0"/></g><g transform="translate(248,286)"><g><g>
<path d="M132,0H0v30h132V0L132,0z" stroke="#000000" stroke-dasharray="none" fill="#FFFFFF"/>
<rect x="5.8" y="1.4" width="120.5" height="27.3" fill="none"/>
<circle fill="none" cx="66" cy="0" r="0.1"/>
<circle fill="none" cx="98.7" cy="0" r="0.1"/>
<circle fill="none" cx="132" cy="7.6" r="0.1"/>
<circle fill="none" cx="132" cy="15" r="0.1"/>
<circle fill="none" cx="132" cy="22.4" r="0.1"/>
<circle fill="none" cx="98.7" cy="30" r="0.1"/>
<circle fill="none" cx="66" cy="30" r="0.1"/>
<circle fill="none" cx="33.3" cy="30" r="0.1"/>
<circle fill="none" cx="0" cy="22.4" r="0.1"/>
<circle fill="none" cx="0" cy="15" r="0.1"/>
<circle fill="none" cx="0" cy="7.6" r="0.1"/>
<circle fill="none" cx="33.3" cy="0" r="0.1"/>
</g></g><rect stroke="none" stroke-width="1" fill="#FFFFFF" x="0" y="0" width="40" height="20" transform="translate(163.9,-32.5)"/><path stroke="#000000" fill="none" d="M132,7.6 C155.2,13.7 143.4,-18.7 166.6 -12.5"/><text font-family="OpenSansCondensedLight" font-size="14pt" fill="black" transform="translate(163.9,-32.5)" text-anchor="middle"><tspan x="20" y="16.3">112</tspan></text><rect stroke-width="0" fill="none" width="120.5" height="27.3" transform="translate(5.8,1.4)"/><text font-family="OpenSansCondensedLight" font-size="14pt" fill="black" transform="translate(5.8,1.4)" text-anchor="middle"><tspan x="60.2" y="19.9">PROCESSOR(S)</tspan></text><path stroke="#000000" fill="none" transform="translate(5.8,1.4)" d="M 0 0"/></g><g><path stroke="black" stroke-dasharray="none" d="M 105 231 105 246 264 246 264 286" fill="none"/><path fill="black" stroke="black" d="" transform="translate(105,231) scale(1,1) rotate(-270)"/><path fill="black" stroke="black" d="" transform="translate(264,286) scale(1,1) rotate(-90)"/><g><g label-idx="0" cursor="move" transform="translate(197, 246)"><rect fill="white" rx="3" ry="3" x="0" y="0" width="0" height="0"/><text text-anchor="middle" font-size="14pt" font-family="OpenSansCondensedLight" y="0.8em" display="none" xml:space="preserve" transform="translate(0,0)"/></g></g></g><g><path stroke="black" stroke-dasharray="none" d="M 166 301 248 301" fill="none"/><path fill="black" stroke="black" d="" transform="translate(166,301) scale(1,1) rotate(0)"/><path fill="black" stroke="black" d="" transform="translate(248,301) scale(1,1) rotate(-180)"/><g><g label-idx="0" cursor="move" transform="translate(207, 301)"><rect fill="white" rx="3" ry="3" x="0" y="0" width="0" height="0"/><text text-anchor="middle" font-size="14pt" font-family="OpenSansCondensedLight" y="0.8em" display="none" xml:space="preserve" transform="translate(0,0)"/></g></g></g><g><path stroke="black" stroke-dasharray="none" d="M 314 369 314 316" fill="none"/><path fill="black" stroke="black" d="" transform="translate(314,369) scale(1,1) rotate(-90)"/><path fill="black" stroke="black" d="" transform="translate(314,316) scale(1,1) rotate(-270)"/><g><g label-idx="0" cursor="move" transform="translate(314, 342.5)"><rect fill="white" rx="3" ry="3" x="0" y="0" width="0" height="0"/><text text-anchor="middle" font-size="14pt" font-family="OpenSansCondensedLight" y="0.8em" display="none" xml:space="preserve" transform="translate(0,0)"/></g></g></g><g><path stroke="black" stroke-dasharray="none" d="M 314 286 314 232" fill="none"/><path fill="black" stroke="black" d="" transform="translate(314,286) scale(1,1) rotate(-90)"/><path fill="black" stroke="black" d="" transform="translate(314,232) scale(1,1) rotate(-270)"/><g><g label-idx="0" cursor="move" transform="translate(314, 259)"><rect fill="white" rx="3" ry="3" x="0" y="0" width="0" height="0"/><text text-anchor="middle" font-size="14pt" font-family="OpenSansCondensedLight" y="0.8em" display="none" xml:space="preserve" transform="translate(0,0)"/></g></g></g><g><path stroke="black" stroke-dasharray="none" d="M 530 232 530 245 349 246 349 286" fill="none"/><path fill="black" stroke="black" d="" transform="translate(530,232) scale(1,1) rotate(-270)"/><path fill="black" stroke="black" d="" transform="translate(349,286) scale(1,1) rotate(-90)"/><g><g label-idx="0" cursor="move" transform="translate(426, 245.6)"><rect fill="white" rx="3" ry="3" x="0" y="0" width="0" height="0"/><text text-anchor="middle" font-size="14pt" font-family="OpenSansCondensedLight" y="0.8em" display="none" xml:space="preserve" transform="translate(0,0)"/></g></g></g><g><path stroke="black" stroke-dasharray="none" d="M 462 301 380 301" fill="none"/><path fill="black" stroke="black" d="" transform="translate(462,301) scale(1,1) rotate(-180)"/><path fill="black" stroke="black" d="" transform="translate(380,301) scale(1,1) rotate(0)"/><g><g label-idx="0" cursor="move" transform="translate(421, 301)"><rect fill="white" rx="3" ry="3" x="0" y="0" width="0" height="0"/><text text-anchor="middle" font-size="14pt" font-family="OpenSansCondensedLight" y="0.8em" display="none" xml:space="preserve" transform="translate(0,0)"/></g></g></g><g><path stroke="black" stroke-dasharray="none" d="M 529 369 529 357 344 357 344 316" fill="none"/><path fill="black" stroke="black" d="" transform="translate(529,369) scale(1,1) rotate(-90)"/><path fill="black" stroke="black" d="" transform="translate(344,316) scale(1,1) rotate(-270)"/><g><g label-idx="0" cursor="move" transform="translate(422, 357)"><rect fill="white" rx="3" ry="3" x="0" y="0" width="0" height="0"/><text text-anchor="middle" font-size="14pt" font-family="OpenSansCondensedLight" y="0.8em" display="none" xml:space="preserve" transform="translate(0,0)"/></g></g></g><g><path stroke="black" stroke-dasharray="none" d="M 102 367 102 357 281 357 281 316" fill="none"/><path fill="black" stroke="black" d="" transform="translate(102,367) scale(1,1) rotate(-90)"/><path fill="black" stroke="black" d="" transform="translate(281,316) scale(1,1) rotate(-270)"/><g><g label-idx="0" cursor="move" transform="translate(207, 357)"><rect fill="white" rx="3" ry="3" x="0" y="0" width="0" height="0"/><text text-anchor="middle" font-size="14pt" font-family="OpenSansCondensedLight" y="0.8em" display="none" xml:space="preserve" transform="translate(0,0)"/></g></g></g></g><defs/></svg>